<mxfile host="app.diagrams.net" modified="2024-07-17T17:29:34.984Z" agent="Mozilla/5.0 (Macintosh; Intel Mac OS X 10_15_7) AppleWebKit/605.1.15 (KHTML, like Gecko) Version/17.5 Safari/605.1.15" version="24.7.1" etag="-AGLjyOZpv1zKg0vPAoa" type="github">
  <diagram name="第 1 页" id="gDuGQ0ssMmN2xaoYrmzl">
    <mxGraphModel>
      <root>
        <mxCell id="0" />
        <mxCell id="1" parent="0" />
      </root>
    </mxGraphModel>
  </diagram>
</mxfile>
